<svg width="648" height="648" viewBox="0 0 648 648" fill="none" xmlns="http://www.w3.org/2000/svg">
<circle cx="324" cy="324" r="324" fill="#615D59"/>
<circle cx="324" cy="324" r="97" fill="#C6C6C6"/>
<ellipse cx="324" cy="323.5" rx="16" ry="15.5" fill="#615D59"/>
<path d="M435.215 215.406C433.106 219.934 428.916 222.237 424.8 221.613C423.54 221.422 422.276 220.95 421.088 220.178C397.876 205.03 372.662 195.291 346.149 191.232C319.636 187.174 293.18 189.023 267.53 196.713C261.962 198.377 256.292 194.415 254.857 187.85C253.422 181.284 256.762 174.621 262.33 172.958C290.534 164.504 319.614 162.472 348.744 166.93C377.873 171.387 405.583 182.089 431.123 198.745C436.147 202.04 437.991 209.482 435.231 215.406L435.215 215.406ZM457.436 161.261C453.983 169.032 445.804 172.022 439.193 167.922C412.044 151.098 382.738 140.191 352.094 135.509C321.449 130.826 290.805 132.577 260.989 140.695C259.37 141.128 257.763 141.223 256.2 140.98C250.76 140.147 246.052 135.442 244.727 128.762C243.012 120.193 247.523 111.641 254.791 109.656C287.749 100.673 321.623 98.7322 355.474 103.9C389.309 109.068 421.701 121.118 451.707 139.726C458.334 143.826 460.89 153.453 457.436 161.243L457.436 161.261ZM482.056 100.222C478.807 107.84 471.899 111.846 465.103 110.805C463.269 110.528 461.461 109.876 459.713 108.847C428.112 90.0155 394.173 77.7404 358.838 72.3474C323.504 66.9544 288.066 68.6339 253.528 77.3544C244.545 79.6233 235.688 72.8689 233.725 62.296C231.762 51.7045 237.46 41.2988 246.427 39.0301C284.679 29.3817 323.888 27.5241 362.987 33.4891C402.087 39.4541 439.641 53.0534 474.643 73.9057C482.856 78.7925 486.171 90.5864 482.056 100.241L482.056 100.222Z" fill="#C6C6C6"/>
<path d="M213.222 432.685C215.331 428.157 219.522 425.854 223.638 426.478C224.898 426.668 226.162 427.14 227.349 427.913C250.561 443.06 275.776 452.8 302.289 456.858C328.802 460.917 355.257 459.068 380.907 451.377C386.475 449.714 392.145 453.676 393.58 460.241C395.015 466.807 391.675 473.469 386.107 475.133C357.903 483.587 328.823 485.619 299.694 481.161C270.565 476.704 242.854 466.002 217.315 449.345C212.29 446.051 210.446 438.609 213.206 432.685L213.222 432.685ZM191.001 486.829C194.455 479.059 202.633 476.068 209.244 480.169C236.394 496.992 265.699 507.9 296.344 512.582C326.988 517.265 357.632 515.514 387.449 507.396C389.067 506.963 390.674 506.868 392.238 507.111C397.677 507.944 402.385 512.649 403.71 519.328C405.425 527.897 400.914 536.45 393.647 538.435C360.689 547.417 326.815 549.359 292.964 544.191C259.129 539.023 226.737 526.973 196.731 508.365C190.104 504.265 187.548 494.637 191.001 486.848L191.001 486.829ZM166.382 547.869C169.63 540.251 176.538 536.245 183.334 537.285C185.169 537.563 186.976 538.215 188.724 539.244C220.325 558.075 254.265 570.35 289.599 575.743C324.934 581.136 360.371 579.457 394.909 570.736C403.893 568.468 412.75 575.222 414.713 585.795C416.676 596.386 410.978 606.792 402.01 609.061C363.758 618.709 324.549 620.567 285.45 614.602C246.351 608.637 208.797 595.037 173.795 574.185C165.582 569.298 162.267 557.504 166.382 547.85L166.382 547.869Z" fill="#C6C6C6"/>
</svg>
